<svg width="45" height="45" viewBox="0 0 45 45" fill="none" xmlns="http://www.w3.org/2000/svg">
<path d="M2 4H41V41H2V4Z" fill="black"/>
<path d="M2.9924 0C2.19894 -4.7632e-08 1.43797 0.315126 0.876817 0.876086C0.315665 1.43704 0.000274932 2.1979 0 2.99136V45H37.2329C38.4929 44.9999 39.7012 44.4993 40.5923 43.6085L43.6085 40.5923C44.0497 40.1512 44.3997 39.6274 44.6385 39.051C44.8772 38.4746 45 37.8567 45 37.2329V0H2.9924ZM7.29125 5.78571H29.3817L14.7474 20.4201C14.3839 20.7829 13.8912 20.987 13.3776 20.9872C13.0108 20.9872 12.6514 20.883 12.3414 20.6868C12.0314 20.4906 11.7834 20.2104 11.6264 19.8788L5.95679 7.89159C5.8505 7.66668 5.80281 7.41853 5.81814 7.17024C5.83348 6.92194 5.91134 6.68155 6.04449 6.47142C6.17765 6.26129 6.36178 6.08824 6.57975 5.96835C6.79773 5.84847 7.04247 5.78564 7.29125 5.78571ZM5.78571 39.2143V24.975C5.78598 24.6102 5.93108 24.2605 6.18908 24.0027C6.44709 23.745 6.7969 23.6001 7.16163 23.6001H21.3999L5.78571 39.2143ZM25.0299 19.9711C24.3787 20.6214 23.496 20.9868 22.5757 20.9872H17.861L32.0464 6.80288C32.3686 6.48045 32.7513 6.22467 33.1723 6.05015C33.5935 5.87562 34.0448 5.78577 34.5007 5.78571H39.2143L25.0299 19.9711Z" fill="#02F58C"/>
</svg>
